# xmcd
# 
# Track frame offsets:
#     150
#     13900
#     26478
#     42898
#     56318
#     67878
#     81813
#     96175
#     110530
#     126158
#     138323
#     151025
# 
# Disc length: 2159
# 
# Revision: 0
# Processed by: cddbd v1.5.2PL0 Copyright (c) Steve Scherf et al.
# Submitted via: fre:ac v1.0.17
# 
DISCID=90086d0c
DTITLE=Louis Armstrong - Louis and The Good Book
DYEAR=1980
DGENRE=Blues
TTITLE0=Nobody knows the trouble I've seen
TTITLE1=Shadrack
TTITLE2=Go down Moses
TTITLE3=Rock my soul (In the Bosom of Abraham)
TTITLE4=Ezekiel saw the wheel
TTITLE5=On my way (Got on my travelin' shoes)
TTITLE6=Down by the riverside
TTITLE7=Swing low, sweet chariot
TTITLE8=Sometimes I feel like a motherless child
TTITLE9=Jonah and the Whale
TTITLE10=Didn't it rain
TTITLE11=This train
EXTD=
EXTT0=
EXTT1=
EXTT2=
EXTT3=
EXTT4=
EXTT5=
EXTT6=
EXTT7=
EXTT8=
EXTT9=
EXTT10=
EXTT11=
PLAYORDER=
